<svg width="17" height="17" viewBox="0 0 17 17" fill="none" xmlns="http://www.w3.org/2000/svg">
<circle cx="8.5" cy="8.5" r="8" fill="#18E39C" stroke="white"/>
<path d="M12.2793 7.74023V8.56641C12.2793 9.27734 12.1133 9.9043 11.7812 10.4473C11.4492 10.9863 10.9844 11.4062 10.3867 11.707C9.79297 12.0078 9.11523 12.1582 8.35352 12.1582C7.56055 12.1582 6.86328 11.9941 6.26172 11.666C5.66406 11.3379 5.20117 10.877 4.87305 10.2832C4.54883 9.68555 4.38672 8.99414 4.38672 8.20898C4.38672 7.41602 4.55664 6.71289 4.89648 6.09961C5.23633 5.48242 5.71094 5.00195 6.32031 4.6582C6.93359 4.31445 7.63672 4.14258 8.42969 4.14258C9.08594 4.14258 9.67773 4.25781 10.2051 4.48828C10.7324 4.71875 11.1641 5.04297 11.5 5.46094C11.8359 5.875 12.0527 6.35547 12.1504 6.90234H10.2754C10.1465 6.55078 9.91406 6.27539 9.57812 6.07617C9.24219 5.87305 8.84766 5.77148 8.39453 5.77148C7.71484 5.77148 7.17773 5.99023 6.7832 6.42773C6.39258 6.86133 6.19727 7.44727 6.19727 8.18555C6.19727 8.91992 6.39453 9.49609 6.78906 9.91406C7.1875 10.3281 7.71875 10.5352 8.38281 10.5352C8.89453 10.5352 9.33203 10.4199 9.69531 10.1895C10.0586 9.95508 10.293 9.63477 10.3984 9.22852H8.33008V7.74023H12.2793Z" fill="white"/>
</svg>
