<svg width="18" height="24" viewBox="0 0 18 24" fill="none" xmlns="http://www.w3.org/2000/svg">
<path d="M10.6875 0C10.6875 0 11.52 2.98172 11.52 5.40084C11.52 7.71871 10.0013 9.59775 7.68375 9.59775C5.355 9.59775 3.6 7.71871 3.6 5.40084L3.63375 4.99578C1.36125 7.6962 0 11.1955 0 14.9986C0 19.9719 4.0275 24 9 24C13.9725 24 18 19.9719 18 14.9986C18 8.9339 15.0863 3.5218 10.6875 0ZM8.67375 20.6245C6.67125 20.6245 5.05125 19.0492 5.05125 17.0914C5.05125 15.2686 6.2325 13.9859 8.2125 13.5809C10.2038 13.1758 12.2625 12.2194 13.41 10.6779C13.8488 12.1294 14.0738 13.6596 14.0738 15.2236C14.0738 18.2053 11.655 20.6245 8.67375 20.6245Z" fill="#E77369"/>
</svg>
