<svg width="22" height="20" viewBox="0 0 22 20" fill="none" xmlns="http://www.w3.org/2000/svg">
<path d="M9.73989 18.19L9.73917 18.1894C6.89654 15.6353 4.57781 13.5512 2.96372 11.5959C1.35522 9.64735 0.5 7.88874 0.5 5.99455C0.5 2.91808 2.93379 0.5 6.05 0.5C7.81432 0.5 9.51418 1.31622 10.6208 2.60383L11 3.04504L11.3792 2.60383C12.4858 1.31622 14.1857 0.5 15.95 0.5C19.0662 0.5 21.5 2.91808 21.5 5.99455C21.5 7.88875 20.6448 9.64738 19.0362 11.5974C17.4251 13.5503 15.1122 15.6329 12.277 18.1857L12.2615 18.1997L12.2604 18.2006L11.0013 19.3278L9.73989 18.19Z" stroke="white"/>
</svg>
