<svg width="127" height="45" viewBox="0 0 127 45" fill="none" xmlns="http://www.w3.org/2000/svg">
<rect x="15.5" y="0.5" width="111" height="44" rx="2.5" fill="#252A37" stroke="#50596D"/>
<path d="M16 3C16 1.89543 16.8954 1 18 1H71V44H18C16.8954 44 16 43.1046 16 42V3Z" fill="#E77369"/>
<path d="M13.158 33.6848L13.1573 33.6842C9.2846 30.2394 6.11104 27.416 3.89964 24.7639C1.69367 22.1184 0.5 19.7062 0.5 17.0926C0.5 12.8459 3.89702 9.5 8.25 9.5C10.7122 9.5 13.0804 10.6267 14.6224 12.403L15 12.8379L15.3776 12.403C16.9196 10.6267 19.2878 9.5 21.75 9.5C26.103 9.5 29.5 12.8459 29.5 17.0926C29.5 19.7062 28.3063 22.1184 26.1003 24.7659C23.8949 27.4125 20.7328 30.2312 16.8747 33.6703L16.8434 33.6983L16.8423 33.6992L15.0013 35.3308L13.158 33.6848Z" fill="#E77369" stroke="white"/>
<path d="M53.0942 25.0957H56.2583V27H49.9302V25.4839L53.3652 21.9023C53.6143 21.6338 53.8096 21.3799 53.9512 21.1406C54.0928 20.8965 54.1636 20.6206 54.1636 20.313C54.1636 19.9419 54.0513 19.6514 53.8267 19.4414C53.6069 19.2314 53.3091 19.1265 52.9331 19.1265C52.5132 19.1265 52.186 19.2534 51.9517 19.5073C51.7222 19.7612 51.6221 20.0933 51.6514 20.5034H49.5713C49.5322 19.854 49.6592 19.2778 49.9521 18.7749C50.2451 18.2671 50.6626 17.8765 51.2046 17.603C51.7466 17.3296 52.3618 17.1929 53.0503 17.1929C53.6899 17.1929 54.2563 17.3149 54.7495 17.5591C55.2476 17.8032 55.6309 18.1475 55.8994 18.5918C56.168 19.0361 56.3022 19.5537 56.3022 20.1445C56.3022 20.7646 56.1777 21.2944 55.9287 21.7339C55.6797 22.1733 55.3599 22.6079 54.9692 23.0376L53.0942 25.0957ZM61.4585 20.5327C62.1079 20.5327 62.6841 20.6743 63.187 20.9575C63.6948 21.2358 64.0903 21.624 64.3735 22.1221C64.6567 22.6152 64.7983 23.1719 64.7983 23.792C64.7983 24.4414 64.6323 25.0225 64.3003 25.5352C63.9731 26.043 63.5264 26.436 62.96 26.7144C62.3984 26.9927 61.7661 27.1318 61.063 27.1318C60.3745 27.1318 59.7568 26.9951 59.21 26.7217C58.668 26.4482 58.2407 26.0625 57.9282 25.5645C57.6206 25.0615 57.4668 24.4854 57.4668 23.8359H59.5688C59.5688 24.2559 59.708 24.5977 59.9863 24.8613C60.2646 25.125 60.6187 25.2568 61.0483 25.2568C61.4976 25.2568 61.8735 25.1177 62.1763 24.8394C62.4839 24.561 62.6377 24.2021 62.6377 23.7627C62.6377 23.333 62.4937 22.9814 62.2056 22.708C61.9175 22.4297 61.5366 22.2905 61.063 22.2905C60.7749 22.2905 60.5063 22.3491 60.2573 22.4663C60.0083 22.5786 59.8081 22.7251 59.6567 22.9058L57.6133 22.6934L58.8584 17.3833H64.1538V19.2144H60.4844L60.0596 20.8037C60.4209 20.623 60.8872 20.5327 61.4585 20.5327ZM69.5444 17.3833H71.6172L67.8672 27H65.7944L69.5444 17.3833ZM72.5547 19.0972C73.4434 19.0972 74.0977 18.9556 74.5176 18.6724C74.9375 18.3843 75.2061 17.9546 75.3232 17.3833H77.2349V27H75.0889V20.7158H72.5547V19.0972ZM82.5449 27.1685C81.7539 27.1685 81.0679 26.9683 80.4868 26.5679C79.9106 26.1675 79.4688 25.5913 79.1611 24.8394C78.8584 24.0874 78.707 23.2085 78.707 22.2026C78.707 21.1821 78.8584 20.2935 79.1611 19.5366C79.4688 18.7798 79.9082 18.2012 80.4795 17.8008C81.0557 17.3955 81.7441 17.1929 82.5449 17.1929C83.3359 17.1929 84.022 17.3955 84.603 17.8008C85.189 18.2012 85.6382 18.7798 85.9507 19.5366C86.2681 20.2935 86.4268 21.1821 86.4268 22.2026C86.4268 23.2134 86.2681 24.0947 85.9507 24.8467C85.6382 25.5938 85.189 26.1675 84.603 26.5679C84.022 26.9683 83.3359 27.1685 82.5449 27.1685ZM82.5596 25.2715C83.1211 25.2715 83.5435 25.0078 83.8267 24.4805C84.1099 23.9482 84.2515 23.189 84.2515 22.2026C84.2515 21.2114 84.1099 20.4497 83.8267 19.9175C83.5435 19.3804 83.1211 19.1118 82.5596 19.1118C82.0078 19.1118 81.5854 19.3779 81.2925 19.9102C81.0044 20.4375 80.8604 21.2017 80.8604 22.2026C80.8604 23.1841 81.0044 23.9409 81.2925 24.4731C81.5854 25.0054 82.0078 25.2715 82.5596 25.2715ZM91.2168 27.1685C90.4258 27.1685 89.7397 26.9683 89.1587 26.5679C88.5825 26.1675 88.1406 25.5913 87.833 24.8394C87.5303 24.0874 87.3789 23.2085 87.3789 22.2026C87.3789 21.1821 87.5303 20.2935 87.833 19.5366C88.1406 18.7798 88.5801 18.2012 89.1514 17.8008C89.7275 17.3955 90.416 17.1929 91.2168 17.1929C92.0078 17.1929 92.6938 17.3955 93.2749 17.8008C93.8608 18.2012 94.3101 18.7798 94.6226 19.5366C94.9399 20.2935 95.0986 21.1821 95.0986 22.2026C95.0986 23.2134 94.9399 24.0947 94.6226 24.8467C94.3101 25.5938 93.8608 26.1675 93.2749 26.5679C92.6938 26.9683 92.0078 27.1685 91.2168 27.1685ZM91.2314 25.2715C91.793 25.2715 92.2153 25.0078 92.4985 24.4805C92.7817 23.9482 92.9233 23.189 92.9233 22.2026C92.9233 21.2114 92.7817 20.4497 92.4985 19.9175C92.2153 19.3804 91.793 19.1118 91.2314 19.1118C90.6797 19.1118 90.2573 19.3779 89.9644 19.9102C89.6763 20.4375 89.5322 21.2017 89.5322 22.2026C89.5322 23.1841 89.6763 23.9409 89.9644 24.4731C90.2573 25.0054 90.6797 25.2715 91.2314 25.2715Z" fill="white"/>
</svg>
