<svg width="23" height="23" viewBox="0 0 23 23" fill="none" xmlns="http://www.w3.org/2000/svg">
<circle cx="11.5" cy="11.5" r="11.5" fill="white"/>
<path d="M11.7363 8.76074C11.3717 8.76074 11.0618 8.63997 10.8066 8.39844C10.556 8.1569 10.4307 7.86296 10.4307 7.5166C10.4307 7.16113 10.5537 6.86491 10.7998 6.62793C11.0505 6.39095 11.3626 6.27246 11.7363 6.27246C12.11 6.27246 12.4199 6.39095 12.666 6.62793C12.9121 6.86491 13.0352 7.16113 13.0352 7.5166C13.0352 7.85384 12.9098 8.14551 12.6592 8.3916C12.4085 8.6377 12.1009 8.76074 11.7363 8.76074ZM10.7588 9.68359H12.7139V16H10.7588V9.68359Z" fill="#18E39C"/>
</svg>
