<svg width="19" height="17" viewBox="0 0 19 17" fill="none" xmlns="http://www.w3.org/2000/svg">
<path d="M8.45445 15.4032L8.45372 15.4026C5.99722 13.2303 3.99938 11.4627 2.60965 9.80573C1.22525 8.15516 0.5 6.67793 0.5 5.09537C0.5 2.52987 2.56323 0.5 5.225 0.5C6.73124 0.5 8.18124 1.18619 9.12338 2.26511L9.5 2.69641L9.87662 2.26511C10.8188 1.18619 12.2688 0.5 13.775 0.5C16.4368 0.5 18.5 2.52987 18.5 5.09537C18.5 6.67794 17.7748 8.15519 16.3902 9.80702C15.0023 11.4629 13.008 13.2302 10.5561 15.4031L10.547 15.4112L10.5459 15.4122L9.50126 16.3325L8.45445 15.4032Z" stroke="white"/>
</svg>
