<svg width="21" height="24" viewBox="0 0 21 24" fill="none" xmlns="http://www.w3.org/2000/svg">
<path d="M18.6667 5.71429H16.3333C16.3333 2.56 13.72 0 10.5 0C7.28 0 4.66667 2.56 4.66667 5.71429H2.33333C1.05 5.71429 0.0116667 6.74286 0.0116667 8L0 21.7143C0 22.9714 1.05 24 2.33333 24H18.6667C19.95 24 21 22.9714 21 21.7143V8C21 6.74286 19.95 5.71429 18.6667 5.71429ZM10.5 2.28571C12.4367 2.28571 14 3.81714 14 5.71429H7C7 3.81714 8.56333 2.28571 10.5 2.28571ZM10.5 13.7143C7.28 13.7143 4.66667 11.1543 4.66667 8H7C7 9.89714 8.56333 11.4286 10.5 11.4286C12.4367 11.4286 14 9.89714 14 8H16.3333C16.3333 11.1543 13.72 13.7143 10.5 13.7143Z" fill="#50596D"/>
</svg>
