<svg width="125" height="45" viewBox="0 0 125 45" fill="none" xmlns="http://www.w3.org/2000/svg">
<rect x="13.5" y="0.5" width="111" height="44" rx="2.5" stroke="#50596D"/>
<path d="M14 3C14 1.89543 14.8954 1 16 1H69V44H16C14.8954 44 14 43.1046 14 42V3Z" fill="#18E39C"/>
<path d="M50.0942 25.0957H53.2583V27H46.9302V25.4839L50.3652 21.9023C50.6143 21.6338 50.8096 21.3799 50.9512 21.1406C51.0928 20.8965 51.1636 20.6206 51.1636 20.313C51.1636 19.9419 51.0513 19.6514 50.8267 19.4414C50.6069 19.2314 50.3091 19.1265 49.9331 19.1265C49.5132 19.1265 49.186 19.2534 48.9517 19.5073C48.7222 19.7612 48.6221 20.0933 48.6514 20.5034H46.5713C46.5322 19.854 46.6592 19.2778 46.9521 18.7749C47.2451 18.2671 47.6626 17.8765 48.2046 17.603C48.7466 17.3296 49.3618 17.1929 50.0503 17.1929C50.6899 17.1929 51.2563 17.3149 51.7495 17.5591C52.2476 17.8032 52.6309 18.1475 52.8994 18.5918C53.168 19.0361 53.3022 19.5537 53.3022 20.1445C53.3022 20.7646 53.1777 21.2944 52.9287 21.7339C52.6797 22.1733 52.3599 22.6079 51.9692 23.0376L50.0942 25.0957ZM58.4585 20.5327C59.1079 20.5327 59.6841 20.6743 60.187 20.9575C60.6948 21.2358 61.0903 21.624 61.3735 22.1221C61.6567 22.6152 61.7983 23.1719 61.7983 23.792C61.7983 24.4414 61.6323 25.0225 61.3003 25.5352C60.9731 26.043 60.5264 26.436 59.96 26.7144C59.3984 26.9927 58.7661 27.1318 58.063 27.1318C57.3745 27.1318 56.7568 26.9951 56.21 26.7217C55.668 26.4482 55.2407 26.0625 54.9282 25.5645C54.6206 25.0615 54.4668 24.4854 54.4668 23.8359H56.5688C56.5688 24.2559 56.708 24.5977 56.9863 24.8613C57.2646 25.125 57.6187 25.2568 58.0483 25.2568C58.4976 25.2568 58.8735 25.1177 59.1763 24.8394C59.4839 24.561 59.6377 24.2021 59.6377 23.7627C59.6377 23.333 59.4937 22.9814 59.2056 22.708C58.9175 22.4297 58.5366 22.2905 58.063 22.2905C57.7749 22.2905 57.5063 22.3491 57.2573 22.4663C57.0083 22.5786 56.8081 22.7251 56.6567 22.9058L54.6133 22.6934L55.8584 17.3833H61.1538V19.2144H57.4844L57.0596 20.8037C57.4209 20.623 57.8872 20.5327 58.4585 20.5327ZM66.5444 17.3833H68.6172L64.8672 27H62.7944L66.5444 17.3833ZM69.5547 19.0972C70.4434 19.0972 71.0977 18.9556 71.5176 18.6724C71.9375 18.3843 72.2061 17.9546 72.3232 17.3833H74.2349V27H72.0889V20.7158H69.5547V19.0972ZM79.5449 27.1685C78.7539 27.1685 78.0679 26.9683 77.4868 26.5679C76.9106 26.1675 76.4688 25.5913 76.1611 24.8394C75.8584 24.0874 75.707 23.2085 75.707 22.2026C75.707 21.1821 75.8584 20.2935 76.1611 19.5366C76.4688 18.7798 76.9082 18.2012 77.4795 17.8008C78.0557 17.3955 78.7441 17.1929 79.5449 17.1929C80.3359 17.1929 81.022 17.3955 81.603 17.8008C82.189 18.2012 82.6382 18.7798 82.9507 19.5366C83.2681 20.2935 83.4268 21.1821 83.4268 22.2026C83.4268 23.2134 83.2681 24.0947 82.9507 24.8467C82.6382 25.5938 82.189 26.1675 81.603 26.5679C81.022 26.9683 80.3359 27.1685 79.5449 27.1685ZM79.5596 25.2715C80.1211 25.2715 80.5435 25.0078 80.8267 24.4805C81.1099 23.9482 81.2515 23.189 81.2515 22.2026C81.2515 21.2114 81.1099 20.4497 80.8267 19.9175C80.5435 19.3804 80.1211 19.1118 79.5596 19.1118C79.0078 19.1118 78.5854 19.3779 78.2925 19.9102C78.0044 20.4375 77.8604 21.2017 77.8604 22.2026C77.8604 23.1841 78.0044 23.9409 78.2925 24.4731C78.5854 25.0054 79.0078 25.2715 79.5596 25.2715ZM88.2168 27.1685C87.4258 27.1685 86.7397 26.9683 86.1587 26.5679C85.5825 26.1675 85.1406 25.5913 84.833 24.8394C84.5303 24.0874 84.3789 23.2085 84.3789 22.2026C84.3789 21.1821 84.5303 20.2935 84.833 19.5366C85.1406 18.7798 85.5801 18.2012 86.1514 17.8008C86.7275 17.3955 87.416 17.1929 88.2168 17.1929C89.0078 17.1929 89.6938 17.3955 90.2749 17.8008C90.8608 18.2012 91.3101 18.7798 91.6226 19.5366C91.9399 20.2935 92.0986 21.1821 92.0986 22.2026C92.0986 23.2134 91.9399 24.0947 91.6226 24.8467C91.3101 25.5938 90.8608 26.1675 90.2749 26.5679C89.6938 26.9683 89.0078 27.1685 88.2168 27.1685ZM88.2314 25.2715C88.793 25.2715 89.2153 25.0078 89.4985 24.4805C89.7817 23.9482 89.9233 23.189 89.9233 22.2026C89.9233 21.2114 89.7817 20.4497 89.4985 19.9175C89.2153 19.3804 88.793 19.1118 88.2314 19.1118C87.6797 19.1118 87.2573 19.3779 86.9644 19.9102C86.6763 20.4375 86.5322 21.2017 86.5322 22.2026C86.5322 23.1841 86.6763 23.9409 86.9644 24.4731C87.2573 25.0054 87.6797 25.2715 88.2314 25.2715Z" fill="white"/>
<path d="M2.30866 16.0387L13.5 9.57735L24.6913 16.0387V28.9613L13.5 35.4227L2.30866 28.9613V16.0387Z" fill="#18E39C" stroke="white"/>
<path d="M10.4468 19.1704C11.3892 19.1704 12.0801 19.019 12.5195 18.7163C12.959 18.4087 13.2349 17.9644 13.3472 17.3833H15.4419V27H13.0762V20.9575H10.4468V19.1704Z" fill="white"/>
</svg>
