<svg width="26" height="11" viewBox="0 0 26 11" fill="none" xmlns="http://www.w3.org/2000/svg">
<path d="M5.20752 4.06006C5.96436 4.17236 6.56738 4.48975 7.0166 5.01221C7.4707 5.52979 7.69775 6.16699 7.69775 6.92383C7.69775 7.55371 7.5415 8.11279 7.229 8.60107C6.92139 9.08447 6.4917 9.46289 5.93994 9.73633C5.38818 10.0098 4.76318 10.1465 4.06494 10.1465C3.37646 10.1465 2.75879 10.0122 2.21191 9.74365C1.66504 9.4751 1.24268 9.0918 0.944824 8.59375C0.646973 8.09082 0.50293 7.50977 0.512695 6.85059H2.60742C2.60742 7.27051 2.74414 7.6123 3.01758 7.87598C3.2959 8.13965 3.65479 8.27148 4.09424 8.27148C4.52393 8.27148 4.87305 8.14697 5.1416 7.89795C5.41504 7.64893 5.55176 7.30957 5.55176 6.87988C5.55176 6.46973 5.41748 6.14746 5.14893 5.91309C4.88525 5.67871 4.53369 5.55176 4.09424 5.53223C3.97217 5.52246 3.63281 5.51758 3.07617 5.51758H2.50488V4.11865L4.45312 2.21436H1.04736V0.383301H7.17041V2.11182L5.20752 4.06006ZM12.4658 10.1685C11.6748 10.1685 10.9888 9.96826 10.4077 9.56787C9.83154 9.16748 9.38965 8.59131 9.08203 7.83936C8.7793 7.0874 8.62793 6.2085 8.62793 5.20264C8.62793 4.18213 8.7793 3.29346 9.08203 2.53662C9.38965 1.77979 9.8291 1.20117 10.4004 0.800781C10.9766 0.395508 11.665 0.192871 12.4658 0.192871C13.2568 0.192871 13.9429 0.395508 14.5239 0.800781C15.1099 1.20117 15.5591 1.77979 15.8716 2.53662C16.189 3.29346 16.3477 4.18213 16.3477 5.20264C16.3477 6.21338 16.189 7.09473 15.8716 7.84668C15.5591 8.59375 15.1099 9.16748 14.5239 9.56787C13.9429 9.96826 13.2568 10.1685 12.4658 10.1685ZM12.4805 8.27148C13.042 8.27148 13.4644 8.00781 13.7476 7.48047C14.0308 6.94824 14.1724 6.18896 14.1724 5.20264C14.1724 4.21143 14.0308 3.44971 13.7476 2.91748C13.4644 2.38037 13.042 2.11182 12.4805 2.11182C11.9287 2.11182 11.5063 2.37793 11.2134 2.91016C10.9253 3.4375 10.7812 4.20166 10.7812 5.20264C10.7812 6.18408 10.9253 6.94092 11.2134 7.47314C11.5063 8.00537 11.9287 8.27148 12.4805 8.27148ZM21.1377 10.1685C20.3467 10.1685 19.6606 9.96826 19.0796 9.56787C18.5034 9.16748 18.0615 8.59131 17.7539 7.83936C17.4512 7.0874 17.2998 6.2085 17.2998 5.20264C17.2998 4.18213 17.4512 3.29346 17.7539 2.53662C18.0615 1.77979 18.501 1.20117 19.0723 0.800781C19.6484 0.395508 20.3369 0.192871 21.1377 0.192871C21.9287 0.192871 22.6147 0.395508 23.1958 0.800781C23.7817 1.20117 24.231 1.77979 24.5435 2.53662C24.8608 3.29346 25.0195 4.18213 25.0195 5.20264C25.0195 6.21338 24.8608 7.09473 24.5435 7.84668C24.231 8.59375 23.7817 9.16748 23.1958 9.56787C22.6147 9.96826 21.9287 10.1685 21.1377 10.1685ZM21.1523 8.27148C21.7139 8.27148 22.1362 8.00781 22.4194 7.48047C22.7026 6.94824 22.8442 6.18896 22.8442 5.20264C22.8442 4.21143 22.7026 3.44971 22.4194 2.91748C22.1362 2.38037 21.7139 2.11182 21.1523 2.11182C20.6006 2.11182 20.1782 2.37793 19.8853 2.91016C19.5972 3.4375 19.4531 4.20166 19.4531 5.20264C19.4531 6.18408 19.5972 6.94092 19.8853 7.47314C20.1782 8.00537 20.6006 8.27148 21.1523 8.27148Z" fill="white"/>
</svg>
