<svg width="56" height="45" viewBox="0 0 56 45" fill="none" xmlns="http://www.w3.org/2000/svg">
<rect x="0.5" y="0.5" width="55" height="44" rx="2.5" stroke="#50596D"/>
<path d="M32.7942 20.2576L32.9426 20.48H33.21H38C38.2662 20.48 38.4873 20.6936 38.4995 20.9571L38.4774 21.1558L35.9492 30.3826C35.949 30.3834 35.9488 30.3843 35.9485 30.3851C35.7667 31.0174 35.1875 31.48 34.5 31.48H21.5C20.8107 31.48 20.2342 31.0159 20.0622 30.388L20.0622 30.3879L17.5222 21.1179L17.5186 21.1048L17.5143 21.0919C17.5059 21.0665 17.5 21.0328 17.5 20.98C17.5 20.7061 17.7261 20.48 18 20.48H22.79H23.0571L23.2056 20.2579L27.5856 13.7079L27.5857 13.7079L27.5882 13.704C27.6717 13.5766 27.821 13.5 28 13.5C28.1803 13.5 28.3323 13.578 28.4154 13.6995C28.4157 13.6999 28.416 13.7003 28.4163 13.7008L32.7942 20.2576ZM24.5869 19.6983L24.0539 20.48H25H31H31.9461L31.4131 19.6983L28.4131 15.2983L28 14.6924L27.5869 15.2983L24.5869 19.6983ZM25.5 25.98C25.5 27.3561 26.6239 28.48 28 28.48C29.3761 28.48 30.5 27.3561 30.5 25.98C30.5 24.6039 29.3761 23.48 28 23.48C26.6239 23.48 25.5 24.6039 25.5 25.98Z" fill="#18E39C" stroke="white"/>
</svg>
