<svg width="27" height="27" viewBox="0 0 27 27" fill="none" xmlns="http://www.w3.org/2000/svg">
<circle cx="13.5" cy="13.5" r="13" fill="#18E39C" stroke="white"/>
<path d="M19.4893 12.54V13.8672C19.4893 14.9219 19.2344 15.8594 18.7246 16.6797C18.2148 17.4941 17.5088 18.124 16.6064 18.5693C15.71 19.0146 14.6904 19.2373 13.5479 19.2373C12.3467 19.2373 11.292 18.9912 10.3838 18.499C9.48145 18.0068 8.78125 17.3154 8.2832 16.4248C7.78516 15.5283 7.53613 14.4912 7.53613 13.3135C7.53613 12.124 7.79395 11.0693 8.30957 10.1494C8.83105 9.22363 9.55469 8.50293 10.4805 7.9873C11.4121 7.47168 12.4785 7.21387 13.6797 7.21387C14.6875 7.21387 15.5928 7.39258 16.3955 7.75C17.1982 8.10742 17.8516 8.6084 18.3555 9.25293C18.8594 9.89746 19.1787 10.6328 19.3135 11.459H16.2197C16.0498 10.9668 15.7334 10.5859 15.2705 10.3164C14.8076 10.0469 14.2598 9.91211 13.627 9.91211C12.666 9.91211 11.916 10.2197 11.377 10.835C10.8379 11.4443 10.5684 12.2588 10.5684 13.2783C10.5684 14.3096 10.8408 15.1094 11.3857 15.6777C11.9307 16.2461 12.666 16.5303 13.5918 16.5303C14.2539 16.5303 14.8311 16.3955 15.3232 16.126C15.8213 15.8564 16.1494 15.4873 16.3076 15.0186H13.5742V12.54H19.4893Z" fill="white"/>
</svg>
